# xmcd
#
# Track frame offsets:
#	150
#	17662
#	35635
#	53140
#
# Disc length: 959 seconds
#
# Revision: 1
# Processed by: cddbd v1.5.2PL0 Copyright (c) Steve Scherf et al.
# Submitted via: audiograbber 1.83.01
#
DISCID=2b03bd04
DTITLE=Springfield, Dusty - Wherever would i be
DYEAR=1995
DGENRE=Pop
TTITLE0=Wherever would i be
TTITLE1=Wherever would i be (Mix)
TTITLE2=Wherever would i be (Dusty solo)
TTITLE3=Reputation
EXTD=
EXTT0=
EXTT1=
EXTT2=
EXTT3=
PLAYORDER=
